PathFileType        4      (X/Y/Z)      C:\Users\pc\Desktop\IMUTRC\Sujet_02\Sujet_02_velo_100.trc         
DataRate	CameraRate	NumFrames	NumMarkers	Units	OrigDataRate	OrigDataStartFrame	OrigNumFrames
60.0	60.0	4	64	mm	60.0	354	943
Frame#	Time	pHipOrigin			pRightASI			pLeftASI			pRightCSI			pLeftCSI			pRightIschialTub			pLeftIschialTub			pSacrum			pL5SpinalProcess			pL3SpinalProcess			pT12SpinalProcess			pIJ			pT4SpinalProcess			pT8SpinalProcess			pPX			pC7SpinalProcess			pTopOfHead			pRightAuricularis			pLeftAuricularis			pBackOfHead			pRightAcromion			pLeftAcromion			pRightArmLatEpicondyle			pRightArmMedEpicondyle			pLeftArmLatEpicondyle			pLeftArmMedEpicondyle			pRightUlnarStyloid			pRightRadialStyloid			pRightOlecranon			pLeftUlnarStyloid			pLeftRadialStyloid			pLeftOlecranon			pRightTopOfHand			pRightPinky			pRightBallHand			pLeftTopOfHand			pLeftPinky			pLeftBallHand			pRightGreaterTrochanter			pRightKneeLatEpicondyle			pRightKneeMedEpicondyle			pRightPatella			pLeftGreaterTrochanter			pLeftKneeLatEpicondyle			pLeftKneeMedEpicondyle			pLeftPatella			pRightTibialTub			pRightLatMalleolus			pRightMedMalleolus			pLeftTibialTub			pLeftLatMalleolus			pLeftMedMalleolus			pRightHeelFoot			pRightFirstMetatarsal			pRightFifthMetatarsal			pRightPivotFoot			pRightHeelCenter			pRightToe			pLeftHeelFoot			pLeftFirstMetatarsal			pLeftFifthMetatarsal			pLeftPivotFoot			pLeftHeelCenter			pLeftToe			
		X1	Y1	Z1	X2	Y2	Z2	X3	Y3	Z3	X4	Y4	Z4	X5	Y5	Z5	X6	Y6	Z6	X7	Y7	Z7	X8	Y8	Z8	X9	Y9	Z9	X10	Y10	Z10	X11	Y11	Z11	X12	Y12	Z12	X13	Y13	Z13	X14	Y14	Z14	X15	Y15	Z15	X16	Y16	Z16	X17	Y17	Z17	X18	Y18	Z18	X19	Y19	Z19	X20	Y20	Z20	X21	Y21	Z21	X22	Y22	Z22	X23	Y23	Z23	X24	Y24	Z24	X25	Y25	Z25	X26	Y26	Z26	X27	Y27	Z27	X28	Y28	Z28	X29	Y29	Z29	X30	Y30	Z30	X31	Y31	Z31	X32	Y32	Z32	X33	Y33	Z33	X34	Y34	Z34	X35	Y35	Z35	X36	Y36	Z36	X37	Y37	Z37	X38	Y38	Z38	X39	Y39	Z39	X40	Y40	Z40	X41	Y41	Z41	X42	Y42	Z42	X43	Y43	Z43	X44	Y44	Z44	X45	Y45	Z45	X46	Y46	Z46	X47	Y47	Z47	X48	Y48	Z48	X49	Y49	Z49	X50	Y50	Z50	X51	Y51	Z51	X52	Y52	Z52	X53	Y53	Z53	X54	Y54	Z54	X55	Y55	Z55	X56	Y56	Z56	X57	Y57	Z57	X58	Y58	Z58	X59	Y59	Z59	X60	Y60	Z60	X61	Y61	Z61	X62	Y62	Z62	X63	Y63	Z63	X64	Y64	Z64	
354	5.883	0.0	1250.00218	7.654055843321067E-14	78.26347000000001	1369.07163	129.45539000000008	31.21457999999999	1358.96946	-155.5621299999999	17.820690000000006	1432.12509	110.72664000000009	-20.715130000000006	1423.83904	-122.87194999999991	-39.784409999999994	1184.22454	68.95585000000007	-59.08069	1180.08152	-47.84343999999992	-72.53134	1262.65828	11.521020000000084	-45.45978	1376.90365	3.972770000000087	3.46198	1488.31134	3.575490000000091	58.4564	1585.41707	6.186160000000093	321.33995	1618.61804	-15.77754999999992	206.35677	1723.72605	11.861540000000092	130.02293	1668.90189	9.875160000000095	220.2047	1539.4465	-19.523299999999917	260.15936	1756.35948	14.245200000000093	488.47985	1766.63192	-57.26456999999992	430.93151	1730.53651	27.92286000000008	383.42859	1769.86688	-85.81172999999991	403.91671	1797.73299	-11.180499999999915	260.38638	1690.6386	204.99468000000007	238.42266	1749.66253	-193.7574299999999	289.2173	1395.80267	244.15480000000005	253.40566	1381.10343	192.22508000000005	318.44551	1463.16941	-226.61787999999996	280.64748	1442.00025	-178.49065999999993	402.3276	1144.72391	299.54649000000006	448.80896	1168.27673	272.87221000000005	245.7439	1383.82762	231.83922000000007	430.36398	1204.37214	-267.70761999999996	470.4889	1222.93063	-229.28529999999995	277.12875	1450.85384	-222.41809999999995	587.34495	1061.69311	293.70085	501.81699	1078.15171	319.97786	443.30384	1121.3981	294.60891000000004	627.6969	1168.50374	-204.20012999999994	550.62525	1157.89079	-251.41927999999996	478.6047	1184.84884	-246.82221999999993	48.12721000000001	1254.82626	174.6881600000001	470.43215	1105.50704	154.20004000000003	470.31864	1096.99397	68.04779000000005	483.03149	1147.5616	103.63242000000004	-16.34509000000001	1206.35852	-172.41800999999992	249.14913	845.23417	-159.53489999999996	273.43975	857.72	-77.35540999999996	297.4466	881.55659	-130.64721999999998	508.28693	1052.499	101.07850000000005	283.0879	683.59938	107.49167000000003	280.81774	690.18282	39.38713000000003	304.9381	801.477	-127.01497999999997	90.29527999999999	427.52629	-157.03772999999998	99.6029	422.98598	-89.38721999999997	207.4351	589.89887	33.88201000000002	384.2799	532.69106	37.91153000000001	356.98133	519.92145	120.48829	393.58752	517.76481	84.22262	246.14118	573.89431	44.21120000000002	469.80786	489.55818	105.10802	-17.480170000000008	368.50235	-98.35430999999997	114.69941	238.19565	-110.04559999999998	90.29527999999999	249.83018	-193.70067999999998	119.40996999999999	226.73138	-158.00255	10.556199999999993	338.08232	-110.78338999999998	176.16376	169.86409	-182.52018	
355	5.9	0.0	1250.00218	7.654055843321067E-14	77.75269000000002	1369.07163	129.73916000000008	31.38483999999999	1359.19647	-155.39186999999993	17.25315000000001	1432.01158	110.95366000000008	-20.715130000000006	1423.89579	-122.75843999999991	-39.841159999999995	1184.11104	68.78559000000007	-58.85368	1180.02476	-48.07045999999992	-72.5881	1262.54477	11.350760000000083	-45.6868	1376.8469	3.972770000000087	3.2917200000000006	1488.31134	3.689000000000091	58.28614	1585.41707	6.469930000000093	321.22644	1618.22076	-15.32351999999992	206.41353	1723.49904	12.258820000000092	129.96617	1668.78839	10.158930000000096	220.03444	1539.21949	-19.12602999999992	260.21612	1756.01896	14.699230000000092	488.65012	1766.34815	-56.41326999999992	430.93151	1730.25274	28.60391000000008	383.65561	1769.58311	-85.18743999999991	403.97346	1797.39247	-10.499449999999914	259.9891	1690.46833	205.3919600000001	238.19565	1749.32201	-193.41690999999992	288.99029	1395.34864	243.07647000000006	252.89488	1380.81967	191.26027000000005	318.27524	1462.99915	-226.84488999999994	280.53397	1441.71648	-178.71767999999994	402.38436	1144.66715	298.80869000000007	448.7522	1168.16322	271.9641500000001	245.46013	1383.48709	230.93116000000006	430.30722	1204.20188	-267.93462999999997	470.43215	1222.76037	-229.56906999999995	276.95849	1450.57007	-222.64510999999993	587.23145	1061.52285	293.13332	501.70349	1078.09496	319.35357	443.30384	1121.28459	293.92787000000004	627.6969	1168.5605	-204.42713999999995	550.62525	1157.89079	-251.64629999999997	478.6047	1184.73533	-247.10598999999993	48.183970000000016	1253.57767	174.57465000000008	467.08368	1095.29136	151.41911000000002	466.40263	1087.28907	65.21010000000004	480.36406	1137.34591	101.02174000000004	-14.131690000000011	1206.92606	-172.70177999999993	261.80522	853.74724	-159.36463999999998	284.90402	866.40333	-76.84462999999995	308.74061	891.31824	-129.73915999999997	507.43562	1044.49672	99.65965000000004	302.38418	664.13283	111.35093000000003	300.51131	669.24067	43.13288000000002	313.45117	808.3442	-126.33392999999997	76.61760999999998	447.95765	-155.61888999999996	85.64147	442.96332	-87.96836999999996	232.86079	564.70019	38.53582000000002	412.7703	518.10533	44.09769	385.86901	504.71144	126.67446	422.70221	504.25741	90.57905	272.41818	551.13604	49.26229000000002	500.51166	480.76134	112.08873	-35.01709000000001	395.5739	-97.84352999999997	88.47916	257.09466	-109.53480999999998	65.38035999999998	270.71557	-193.24664999999996	92.73568999999999	245.51689	-157.49175999999997	-8.967100000000007	363.45126	-110.21585999999998	145.85724	185.0741	-182.0094	
356	5.917	0.0	1250.00218	7.654055843321067E-14	77.29866000000001	1368.78786	130.2499400000001	31.66860999999999	1359.6505	-154.9945999999999	16.799120000000006	1431.72781	111.52119000000009	-20.601630000000007	1424.23631	-122.30440999999992	-39.95466999999999	1183.88402	68.50182000000007	-58.62666	1180.13827	-48.410979999999924	-72.64485	1262.43126	11.237250000000083	-45.80031	1376.8469	4.199780000000087	3.0647000000000006	1488.31134	4.086270000000091	58.00237	1585.47383	6.923960000000093	320.94267	1618.33427	-14.75597999999992	206.073	1723.61255	12.656090000000093	129.68241	1668.90189	10.612960000000095	219.75067	1539.333	-18.501729999999917	259.93235	1756.13247	15.039750000000092	488.4231	1766.46166	-55.78896999999992	430.53424	1730.36625	29.171450000000082	383.42859	1769.63987	-84.73340999999992	403.6897	1797.50598	-10.045419999999915	259.53507	1690.92236	205.90274000000008	237.68486	1749.49227	-192.96287999999993	289.89835	1396.08643	243.41700000000006	253.80294	1381.3872	191.71430000000007	318.55901	1463.33967	-226.33410999999995	280.64748	1441.9435	-178.26364999999996	402.78163	1145.12118	299.54649000000006	449.20623	1168.50374	272.58844000000005	246.36819	1384.22489	231.32844000000006	430.36398	1204.5424	-267.87787999999995	470.4889	1222.98738	-229.39880999999994	277.1855	1450.96735	-222.19107999999994	587.57197	1061.74987	293.81436	502.04401	1078.37873	320.03461	443.70112	1121.68187	294.5521600000001	627.75365	1169.12804	-204.14337999999995	550.79551	1158.28806	-251.41927999999996	478.7182	1185.0191	-246.93572999999995	47.90020000000001	1251.08051	174.51790000000008	460.84076	1078.20847	148.69492000000002	459.81919	1071.2845	62.37241000000004	475.53999	1120.37653	98.86510000000004	-11.35076000000001	1208.2314	-173.15580999999992	276.4477	864.64396	-159.53489999999996	297.84388	877.1298	-76.56085999999996	321.56696	903.4068	-128.77434999999997	503.91688	1029.79749	98.52458000000003	318.61577	639.55844	113.11030000000002	317.87797	643.36094	44.77874000000002	323.72361	817.70858	-126.05015999999996	66.62894999999999	471.39696	-154.93783999999997	75.53929	465.9486	-87.34407999999998	254.93802	535.64225	41.94105000000002	436.94741	498.29826	48.52449	410.5569	484.79086	131.27151	447.44687	485.69892	95.23286	295.1197	524.23474	52.89453000000002	526.33463	466.40263	117.19657	-47.956950000000006	426.05069	-97.90027999999997	66.79921	280.19345	-109.36454999999998	45.06250999999999	295.46022	-193.18988999999996	70.60170999999998	268.55893	-157.37824999999998	-23.836590000000008	392.45245	-110.27260999999997	120.03425999999999	205.05144	-181.78238	
357	5.933	0.0	1250.00218	7.654055843321067E-14	76.84463000000001	1368.33383	130.9309900000001	32.009139999999995	1360.27479	-154.48380999999992	16.345090000000006	1431.33054	112.25899000000008	-20.374610000000008	1424.69034	-121.68011999999992	-40.068169999999995	1183.5435	68.16130000000007	-58.4564	1180.25178	-48.80825999999992	-72.7016	1262.31776	11.066990000000084	-45.91381	1376.79015	4.597060000000087	2.8376900000000003	1488.31134	4.6538100000000915	57.7186	1585.53058	7.4915000000000935	320.60215	1618.67479	-14.30194999999992	205.56222	1723.89631	12.939860000000092	129.22838	1669.07216	11.123740000000096	219.4669	1539.56001	-17.820689999999917	259.36481	1756.52974	15.266770000000092	487.96907	1766.74542	-55.334939999999925	429.9667	1730.76352	29.56872000000008	383.03132	1769.98039	-84.44963999999992	403.17891	1797.90325	-9.704899999999915	259.08104	1691.71692	206.3567700000001	237.00382	1749.88955	-192.5655999999999	291.71447	1397.56203	244.60883000000007	255.56231	1382.40877	193.01963000000006	319.01304	1463.90721	-225.25578999999993	280.98801	1442.45428	-177.35558999999995	403.34917	1145.91574	301.13560000000007	449.94403	1169.07128	274.2343000000001	248.12756000000002	1385.64374	232.57702000000006	430.53424	1205.10994	-267.59410999999994	470.4889	1223.3279	-228.88802999999993	277.58278	1451.59164	-221.28301999999994	588.13951	1062.14715	295.34671	502.61155	1078.94627	321.62372	444.32541	1122.36291	296.19802000000004	627.86716	1169.86583	-203.51907999999995	550.96578	1158.91235	-250.85173999999998	478.83171	1185.58663	-246.42494999999994	47.33266000000001	1247.67528	174.51790000000008	451.36288	1055.33669	145.68697000000003	450.11429	1050.00183	59.25095000000004	468.21875	1097.61826	96.53819000000004	-8.05904000000001	1210.10427	-173.72334999999993	293.24682	878.32163	-159.76190999999997	312.48636	890.29667	-76.16357999999995	336.15269	918.3898	-127.52575999999996	497.67397	1009.47963	97.50301000000003	331.89615	610.61401	113.96161000000002	332.86097	613.28143	45.573290000000014	336.03918	829.74038	-126.05015999999996	60.15901999999999	498.18475	-154.54056999999997	69.01261	492.1121	-86.94679999999997	273.89378	502.95207	44.494970000000016	457.43553	473.83738	51.64595	431.61256	460.44348	134.56323	468.44577	462.42987	98.52458	314.52949	493.53094	55.61871000000001	548.01458	447.10634	120.82881	-56.81054000000001	459.87595	-98.24080999999997	49.092029999999994	307.43527	-109.36454999999998	28.71741999999999	324.12088	-193.24664999999996	52.44049999999999	295.68724	-157.37824999999998	-34.733320000000006	424.91561	-110.55637999999998	98.07054999999998	229.45557	-181.66888	
